<?xml version="1.0" encoding="UTF-8"?>
<svg width="28px" height="28px" viewBox="0 0 28 28" version="1.1" xmlns="http://www.w3.org/2000/svg" xmlns:xlink="http://www.w3.org/1999/xlink">
    <title>8A8D603D-89ED-4D55-9B30-5F28AFF66032@1x</title>
    <defs>
        <polygon id="path-1" points="0 0 27.99664 0 27.99664 28 0 28"></polygon>
    </defs>
    <g id="App-Download-Page" stroke="none" stroke-width="1" fill="none" fill-rule="evenodd">
        <g id="02" transform="translate(-512.000000, -195.000000)">
            <g id="shutterstock_759841507" transform="translate(512.003360, 195.000000)">
                <g id="Group-3">
                    <mask id="mask-2" fill="white">
                        <use xlink:href="#path-1"></use>
                    </mask>
                    <g id="Clip-2"></g>
                    <polygon id="Fill-1" fill="#FFFFFF" mask="url(#mask-2)" points="-1.27453603e-16 28 27.99664 28 27.99664 0 -1.27453603e-16 0"></polygon>
                </g>
                <path d="M13.97032,21.741496 C15.29304,21.741496 16.365384,20.690488 16.365384,19.393976 L11.575256,19.393976 C11.575256,20.690488 12.647544,21.741496 13.97032,21.741496" id="Fill-4" fill="#0783EF"></path>
                <path d="M21.331296,17.379936 L19.58656,15.45068 C19.324984,15.161496 19.18056,14.788368 19.18056,14.401856 L19.18056,11.663288 C19.18056,9.131808 17.352776,6.927144 14.876176,6.4918 L14.876176,6.056176 C14.876176,5.555872 14.470624,5.15032 13.97032,5.15032 C13.470016,5.15032 13.064408,5.555872 13.064408,6.056176 L13.064408,6.489616 C10.61872,6.909952 8.76008,9.001608 8.76008,11.519088 L8.76008,14.401856 C8.76008,14.788368 8.6156,15.161496 8.35408,15.45068 L6.609288,17.379936 C6.243888,17.783976 6.536544,18.421536 7.087416,18.421536 L20.853224,18.421536 C21.404096,18.421536 21.696752,17.783976 21.331296,17.379936" id="Fill-5" fill="#0783EF"></path>
                <path d="M22.072512,7.678608 C22.072512,9.312128 20.748336,10.63636 19.114816,10.63636 C17.481352,10.63636 16.15712,9.312128 16.15712,7.678608 C16.15712,6.045144 17.481352,4.720912 19.114816,4.720912 C20.748336,4.720912 22.072512,6.045144 22.072512,7.678608" id="Fill-6" fill="#FFFFFF"></path>
                <path d="M21.389984,7.678608 C21.389984,8.935192 20.371344,9.953776 19.114816,9.953776 C17.858288,9.953776 16.839648,8.935192 16.839648,7.678608 C16.839648,6.42208 17.858288,5.403496 19.114816,5.403496 C20.371344,5.403496 21.389984,6.42208 21.389984,7.678608" id="Fill-7" fill="#FF3D00"></path>
                <path d="M19.522608,8.997856 L18.96496,8.997856 L18.96496,7.471072 L18.970392,7.220248 L18.979408,6.945904 C18.886784,7.038584 18.822384,7.099344 18.78632,7.128184 L18.483136,7.37184 L18.214224,7.036176 L19.064248,6.359416 L19.522608,6.359416 L19.522608,8.997856" id="Fill-8" fill="#FFFFFF"></path>
            </g>
        </g>
    </g>
</svg>