<?xml version="1.0" encoding="UTF-8"?>
<svg width="28px" height="28px" viewBox="0 0 28 28" version="1.1" xmlns="http://www.w3.org/2000/svg" xmlns:xlink="http://www.w3.org/1999/xlink">
    <title>9612BF12-38B4-4088-83AC-86C68AFF860E@1x</title>
    <g id="App-Download-Page" stroke="none" stroke-width="1" fill="none" fill-rule="evenodd">
        <g id="02" transform="translate(-512.000000, -313.000000)">
            <g id="Group-4" transform="translate(512.000000, 313.000000)">
                <rect id="Rectangle" x="0" y="0" width="28" height="28"></rect>
                <g id="customer-feedback-(1)" transform="translate(6.002975, 4.439054)" fill-rule="nonzero">
                    <g id="Group">
                        <g id="Path-+-Oval-Mask" transform="translate(2.974956, 2.797993)">
                            <path d="M8.35742429,7.64220645 C7.650501,8.25181396 6.74424704,8.61790913 5.75618163,8.61790913 C4.76811621,8.61790913 3.86186226,8.25181396 3.15493897,7.64220645 C1.40232065,7.70857596 0,9.21027474 0,11.0579925 L0,13.7701672 C1.60413731,15.0271727 3.59699202,15.7721174 5.75618163,15.7721174 C7.91537123,15.7721174 9.90822595,15.0271727 11.5123633,13.7701672 L11.5123633,11.0579925 C11.5123633,9.21027474 10.1100426,7.70857596 8.35742429,7.64220645 L8.35742429,7.64220645 Z" id="Path" fill="#007DFF"></path>
                            <ellipse id="Oval" fill="#FFD7E5" cx="5.75618163" cy="4.24867264" rx="4.23503651" ry="4.24867264"></ellipse>
                        </g>
                        <g id="Group" fill="#FF3C00">
                            <path d="M5.50465938,0.464830368 C4.88687473,-0.154943456 3.88550233,-0.154943456 3.26771768,0.464830368 L2.98399894,0.749462636 L2.7002802,0.464830368 C2.08249554,-0.154943456 1.08112315,-0.154943456 0.463338493,0.464830368 C-0.154446164,1.08460419 -0.154446164,2.08920084 0.463338493,2.70897467 L0.747057232,2.99360693 L2.63260038,4.88522123 C2.82676717,5.0800132 3.14143705,5.0800132 3.33539749,4.88522123 L5.22094064,2.99360693 L5.50465938,2.70897467 C6.12244404,2.08940785 6.12244404,1.08460419 5.50465938,0.464830368 L5.50465938,0.464830368 Z" id="Path"></path>
                        </g>
                    </g>
                </g>
            </g>
        </g>
    </g>
</svg>